<svg xmlns="http://www.w3.org/2000/svg" width="512" height="512" viewBox="0 0 512 512" version="1.1"><path d="M 223.564 1.625 C 189.116 6.037, 148.947 20.301, 120.811 38.112 C 88.146 58.791, 58.791 88.146, 38.112 120.811 C 24.679 142.030, 11.372 174.858, 5.607 201 C -1.983 235.420, -1.984 276.553, 5.605 311 C 13.785 348.132, 32.015 386.242, 55.831 416 C 97.581 468.165, 159.783 502.793, 225.559 510.488 C 242.111 512.424, 269.889 512.424, 286.441 510.488 C 349.786 503.078, 410.477 470.394, 451.687 421.500 C 483.128 384.195, 505.455 333.267, 510.283 287.838 C 510.916 281.877, 511.787 277, 512.217 277 C 512.648 277, 512.964 266.988, 512.921 254.750 C 512.878 242.512, 512.566 233.175, 512.229 234 C 511.891 234.825, 511.041 230.441, 510.338 224.258 C 504.073 169.092, 475.176 111.158, 434.379 71.971 C 393.649 32.848, 342.409 8.355, 287.030 1.536 C 271.561 -0.369, 238.774 -0.323, 223.564 1.625 M 336 104.154 L 330.500 106.304 316 120.576 L 301.500 134.847 296.351 133.506 C 287.296 131.148, 278.493 135, 272.947 143.745 C 269.712 148.845, 269.063 155.014, 271.135 160.957 L 272.270 164.213 194.135 242.371 C 151.161 285.359, 116 321.030, 116 321.640 C 116 322.251, 112.850 341.024, 109 363.358 C 105.150 385.692, 102 404.818, 102 405.860 C 102 406.902, 102.703 408.339, 103.563 409.052 L 105.126 410.350 145.313 403.592 C 167.416 399.875, 187.066 396.429, 188.981 395.934 C 191.772 395.212, 207.845 379.651, 270.171 317.329 L 347.880 239.624 350.487 240.812 C 354.726 242.743, 363.020 242.281, 367 239.891 C 377.113 233.820, 381.058 225.498, 378.494 215.649 L 377.153 210.500 391.423 196 L 405.693 181.500 407.945 175.500 C 410.837 167.796, 410.456 157.690, 406.999 150.395 C 403.716 143.466, 368.509 108.283, 361.500 104.926 C 354.436 101.543, 343.523 101.213, 336 104.154 M 341.994 110.876 C 336.351 112.724, 332.909 115.456, 320.508 127.937 L 307.516 141.012 339.252 172.748 L 370.988 204.484 384.065 191.492 C 399.424 176.234, 401.411 173.093, 401.463 164 L 401.500 157.500 398.828 153 C 395.544 147.470, 362.779 114.887, 358.137 112.536 C 354.251 110.567, 345.642 109.682, 341.994 110.876 M 282.368 145.368 C 277.574 150.163, 276.779 153.793, 279.429 158.800 C 280.216 160.285, 297.217 177.813, 317.211 197.750 L 353.564 234 357.032 233.996 C 364.051 233.989, 370.989 227.043, 370.996 220.015 L 371 216.529 333.235 178.765 L 295.471 141 291.104 141 L 286.737 141 282.368 145.368 M 202.493 246.007 L 126.510 321.995 135.257 330.743 L 144.005 339.490 219.502 263.998 C 261.026 222.477, 295 188.044, 295 187.480 C 295 186.917, 291.282 182.757, 286.738 178.237 L 278.477 170.018 202.493 246.007 M 225.002 269.498 L 149.510 344.995 158.257 353.743 L 167.005 362.490 242.502 286.998 C 284.026 245.477, 318 211.043, 318 210.479 C 318 209.172, 302.786 194, 301.475 194 C 300.936 194, 266.523 227.974, 225.002 269.498 M 248.002 292.498 L 172.510 367.995 181.257 376.743 L 190.005 385.490 265.993 309.507 L 341.982 233.523 333.763 225.262 C 329.243 220.718, 325.083 217, 324.520 217 C 323.956 217, 289.523 250.974, 248.002 292.498 M 0.428 256 C 0.428 268.375, 0.571 273.438, 0.747 267.250 C 0.922 261.063, 0.922 250.938, 0.747 244.750 C 0.571 238.563, 0.428 243.625, 0.428 256" stroke="none" fill="#f67b1a" fill-rule="evenodd"/><path d="M 336 104.154 L 330.500 106.304 316 120.576 L 301.500 134.847 296.351 133.506 C 287.296 131.148, 278.493 135, 272.947 143.745 C 269.712 148.845, 269.063 155.014, 271.135 160.957 L 272.270 164.213 194.135 242.371 C 151.161 285.359, 116 321.030, 116 321.640 C 116 322.251, 112.850 341.024, 109 363.358 C 105.150 385.692, 102 404.818, 102 405.860 C 102 406.902, 102.703 408.339, 103.563 409.052 L 105.126 410.350 145.313 403.592 C 167.416 399.875, 187.066 396.429, 188.981 395.934 C 191.772 395.212, 207.845 379.651, 270.171 317.329 L 347.880 239.624 350.487 240.812 C 354.726 242.743, 363.020 242.281, 367 239.891 C 377.113 233.820, 381.058 225.498, 378.494 215.649 L 377.153 210.500 391.423 196 L 405.693 181.500 407.945 175.500 C 410.837 167.796, 410.456 157.690, 406.999 150.395 C 403.716 143.466, 368.509 108.283, 361.500 104.926 C 354.436 101.543, 343.523 101.213, 336 104.154 M 341.994 110.876 C 336.351 112.724, 332.909 115.456, 320.508 127.937 L 307.516 141.012 339.252 172.748 L 370.988 204.484 384.065 191.492 C 399.424 176.234, 401.411 173.093, 401.463 164 L 401.500 157.500 398.828 153 C 395.544 147.470, 362.779 114.887, 358.137 112.536 C 354.251 110.567, 345.642 109.682, 341.994 110.876 M 282.368 145.368 C 277.574 150.163, 276.779 153.793, 279.429 158.800 C 280.216 160.285, 297.217 177.813, 317.211 197.750 L 353.564 234 357.032 233.996 C 364.051 233.989, 370.989 227.043, 370.996 220.015 L 371 216.529 333.235 178.765 L 295.471 141 291.104 141 L 286.737 141 282.368 145.368 M 202.493 246.007 L 126.510 321.995 135.257 330.743 L 144.005 339.490 219.502 263.998 C 261.026 222.477, 295 188.044, 295 187.480 C 295 186.917, 291.282 182.757, 286.738 178.237 L 278.477 170.018 202.493 246.007 M 225.002 269.498 L 149.510 344.995 158.257 353.743 L 167.005 362.490 242.502 286.998 C 284.026 245.477, 318 211.043, 318 210.479 C 318 209.172, 302.786 194, 301.475 194 C 300.936 194, 266.523 227.974, 225.002 269.498 M 248.002 292.498 L 172.510 367.995 181.257 376.743 L 190.005 385.490 265.993 309.507 L 341.982 233.523 333.763 225.262 C 329.243 220.718, 325.083 217, 324.520 217 C 323.956 217, 289.523 250.974, 248.002 292.498" stroke="none" fill="#151211" fill-rule="evenodd"/></svg>